HIERARCHY
ROOT Hips
{
    OFFSET   0.000000   0.000000   0.000000
    CHANNELS 6 Xposition Yposition Zposition Xrotation Yrotation Zrotation
    JOINT LeftUpLeg
    {
        OFFSET   0.078795   0.000000   0.000000
        CHANNELS 3 Xrotation Yrotation Zrotation
        JOINT LeftLeg
        {
            OFFSET   0.110662  -0.412997   0.000000
            CHANNELS 3 Xrotation Yrotation Zrotation
            JOINT LeftFoot
            {
                OFFSET   0.102152  -0.381236   0.000000
                CHANNELS 3 Xrotation Yrotation Zrotation
                JOINT LeftToeBase
                {
                    OFFSET   0.010345  -0.038609   0.149173
                    CHANNELS 3 Xrotation Yrotation Zrotation
                }
            }
        }
    }
    JOINT RightUpLeg
    {
        OFFSET  -0.078795   0.000000   0.000000
        CHANNELS 3 Xrotation Yrotation Zrotation
        JOINT RightLeg
        {
            OFFSET  -0.110662  -0.412997   0.000000
            CHANNELS 3 Xrotation Yrotation Zrotation
            JOINT RightFoot
            {
                OFFSET  -0.102152  -0.381236   0.000000
                CHANNELS 3 Xrotation Yrotation Zrotation
                JOINT RightToeBase
                {
                    OFFSET  -0.010345  -0.038609   0.149173
                    CHANNELS 3 Xrotation Yrotation Zrotation
                }
            }
        }
    }
    JOINT Spine
    {
        OFFSET   0.000000   0.001000   0.000000
        CHANNELS 3 Xrotation Yrotation Zrotation
        JOINT Spine1
        {
            OFFSET   0.000000   0.211086   0.000000
            CHANNELS 3 Xrotation Yrotation Zrotation
            JOINT Neck
            {
                OFFSET   0.000000   0.158868   0.000000
                CHANNELS 3 Xrotation Yrotation Zrotation
            }
            JOINT LeftShoulder
            {
                OFFSET   0.000000   0.158868   0.000000
                CHANNELS 3 Xrotation Yrotation Zrotation
                JOINT LeftArm
                {
                    OFFSET   0.189194  -0.000001   0.000000
                    CHANNELS 3 Xrotation Yrotation Zrotation
                    JOINT LeftForeArm
                    {
                        OFFSET   0.192813  -0.192815   0.000000
                        CHANNELS 3 Xrotation Yrotation Zrotation
                        JOINT LeftHand
                        {
                            OFFSET   0.182449  -0.182451   0.000000
                            CHANNELS 3 Xrotation Yrotation Zrotation
                        }
                    }
                }
            }
            JOINT RightShoulder
            {
                OFFSET   0.000000   0.158868   0.000000
                CHANNELS 3 Xrotation Yrotation Zrotation
                JOINT RightArm
                {
                    OFFSET  -0.189194  -0.000001   0.000000
                    CHANNELS 3 Xrotation Yrotation Zrotation
                    JOINT RightForeArm
                    {
                        OFFSET  -0.192813  -0.192815   0.000000
                        CHANNELS 3 Xrotation Yrotation Zrotation
                        JOINT RightHand
                        {
                            OFFSET  -0.182449  -0.182451   0.000000
                            CHANNELS 3 Xrotation Yrotation Zrotation
                        }
                    }
                }
            }
        }
    }
}
MOTION
Frames: 5
Frame Time:   0.016667
 -1.726789   0.845312  -0.112979  82.585800  85.841300 -78.911000  -3.916000   0.914500 -14.644500  13.856493   3.671715  -0.446314 -21.472539  11.238787 -26.621815  -3.064126  -0.820583  -0.021948 -15.905300  -4.015200  -4.118500  37.503009  -9.264955   3.151377 -18.260125  -4.597620   4.100909  -2.891385   0.774368   0.019543  -5.507600   2.859200  -1.397600   3.203700   1.244000  -6.140200  22.467700  11.738700   2.353300  18.984100  -1.197500  22.575600  -7.234000  -9.472100 -53.236100 -20.355397 -19.179718  -3.474697  -0.630881   5.426975  -3.978513  17.073300  -2.342700 -16.941500 -10.868200   1.254900  50.819900 -12.384979  12.105228   1.318277 -34.479937  -9.800962  17.691451
 -1.725226   0.844766  -0.115349  81.326500  85.740300 -77.769100  -4.181500   1.169800 -14.658000  14.488696   3.835253  -0.487700 -21.945566  10.974703 -26.564461  -2.757195  -0.738462  -0.017772 -19.259600  -3.325800  -4.091000  43.490499 -10.448630   4.177313 -16.199486  -6.597233   3.519957  -5.260429   1.407265   0.064650  -5.295200   2.756100  -1.559100   3.423700   1.163100  -6.005500  22.515000  11.629800   2.521800  19.024600  -1.387800  22.675900  -7.593600 -10.165700 -53.274500 -19.499139 -18.458513  -3.198474  -1.013701   5.968434  -4.133691  17.015900  -2.307900 -16.960600 -11.123800   1.112900  50.354900 -12.530835  12.241317   1.349034 -34.877051  -9.468546  16.952910
 -1.723332   0.844131  -0.117097  81.303800  85.606600 -77.878500  -4.427100   1.419800 -14.606100  15.009813   3.969658  -0.523167 -22.336960  10.638660 -26.566232  -2.682034  -0.718349  -0.016816 -22.761200  -3.294700  -4.002900  48.949383 -11.423842   5.213747 -14.724934  -8.874793   3.870565  -4.508160   1.206533   0.047493  -5.142400   2.588500  -1.800300   3.633600   1.029600  -5.769900  22.629300  11.590700   2.672900  19.179600  -1.609400  22.886000  -7.901600 -10.824800 -53.256100 -18.906575 -17.953551  -3.013334  -1.473980   6.484035  -4.305028  17.000000  -2.208600 -17.047200 -11.251200   0.564300  49.960600 -12.796887  12.488993   1.406007 -36.067890  -9.502269  15.839613
 -1.721000   0.843501  -0.118250  84.276700  85.494400 -81.020900  -4.775100   1.737000 -14.446000  15.683925   4.142973  -0.570852 -22.690969  10.054450 -26.746264  -2.393954  -0.641245  -0.013398 -26.346000  -4.358800  -3.993300  53.629580 -12.175095   6.171317 -14.301025 -11.300641   3.884239  -0.949898   0.254511   0.002110  -5.042200   2.309600  -2.092000   3.885500   0.795400  -5.431300  22.790800  11.536000   2.812700  19.283200  -1.956700  23.111100  -8.026100 -11.474200 -53.090000 -18.564208 -17.659647  -2.908635  -1.629437   6.704955  -4.652416  16.953600  -2.104000 -17.102700 -11.220800  -0.165100  49.568400 -13.214855  12.876605   1.497774 -36.301278  -9.459515  15.716103
 -1.718191   0.842896  -0.118963  89.949500  85.287100 -86.940500  -5.161700   1.719900 -14.191300  16.252742   4.288713  -0.612669 -22.969236   9.504679 -26.995199  -2.520024  -0.674989  -0.014846 -29.665300  -5.926500  -4.088400  57.044352 -12.671330   6.906155 -14.151129 -12.948327   3.565652   1.154679  -0.309371   0.003117  -4.963100   1.977900  -2.324300   4.024000   0.511500  -5.058400  22.923900  11.388100   2.985200  19.341500  -2.368700  23.285000  -8.055400 -12.345000 -52.706200 -18.427233 -17.541624  -2.867217  -1.429724   7.003382  -4.920651  16.998700  -2.204400 -17.037300 -11.122100  -0.930800  49.182700 -13.840807  13.453613   1.640343 -36.322402  -9.474384  15.434877
